<svg version="1.1" preserveAspectRatio="none" xmlns="http://www.w3.org/2000/svg" width="500" height="500" viewBox="0 0 500 500"><rect width="100%" height="100%" fill="#1E1F22" fill-opacity="1"/><svg viewBox="61.7594 476.1 473.9118 90" width="333" height="63.23961547275252" x="83.5px" y="218.3802px" xmlns="http://www.w3.org/2000/svg" xmlns:xlink="http://www.w3.org/1999/xlink" preserveAspectRatio="none"><defs></defs><style>.companyName {fill:#EBE7D9;fill-opacity:1;}.icon3 {fill:#F55139;fill-opacity:1;}.icon3-str {stroke:#F55139;stroke-opacity:1;}</style><g opacity="1" transform="rotate(0 174.3037 476.1)">
<svg width="361.3675" height="90" x="174.3037" y="476.1" version="1.1" preserveAspectRatio="none" viewBox="1.16 -28.48 116.28 28.96">
  <g transform="matrix(1 0 0 1 0 0)" class="companyName"><path id="id-D6z1nYkh4" d="M18.08-28Q23.32-28 26.18-25.70Q29.04-23.40 29.04-19.28L29.04-19.28Q29.04-15.76 27.38-13.14Q25.72-10.52 22.66-9.12Q19.60-7.72 15.44-7.72L15.44-7.72L9.20-7.72L7.68 0L1.16 0L6.76-28L18.08-28ZM15.72-13Q18.96-13 20.72-14.48Q22.48-15.96 22.48-18.72L22.48-18.72Q22.48-20.72 21.14-21.72Q19.80-22.72 17.28-22.72L17.28-22.72L12.20-22.72L10.24-13L15.72-13Z M49.88 0L48.56-6L35.52-6L31.88 0L24.96 0L43.08-28L49.48-28L56.36 0L49.88 0ZM38.52-10.92L47.48-10.92L45.12-21.72L38.52-10.92Z M79.08-6.04L80.72-14.44L86.64-14.44L84.32-2.92Q82.20-1.28 79.40-0.40Q76.60 0.48 73.60 0.48L73.60 0.48Q69.40 0.48 66.28-1.04Q63.16-2.56 61.46-5.32Q59.76-8.08 59.76-11.68L59.76-11.68Q59.76-16.44 61.96-20.28Q64.16-24.12 68.16-26.30Q72.16-28.48 77.36-28.48L77.36-28.48Q81.36-28.48 84.30-27.24Q87.24-26 89.04-23.60L89.04-23.60L84.40-19.84Q83-21.48 81.24-22.22Q79.48-22.96 77.08-22.96L77.08-22.96Q73.88-22.96 71.44-21.54Q69-20.12 67.66-17.64Q66.32-15.16 66.32-12.08L66.32-12.08Q66.32-8.84 68.42-6.94Q70.52-5.04 74.44-5.04L74.44-5.04Q76.92-5.04 79.08-6.04L79.08-6.04Z M110.96 0L109.64-6L96.60-6L92.96 0L86.04 0L104.16-28L110.56-28L117.44 0L110.96 0ZM99.60-10.92L108.56-10.92L106.20-21.72L99.60-10.92Z"/></g>
</svg>
</g><g opacity="1" transform="rotate(0 61.7594 476.1)">
<svg width="112.5443" height="90" x="61.7594" y="476.1" version="1.1" preserveAspectRatio="none" viewBox="-4.6 -33.68 47.12 37.68">
  <g transform="matrix(1 0 0 1 0 0)" class="icon3"><path id="id-hTdFi603-2" d="M-4.60 4L15.88-33.68L24.12-33.68L3.64 4L-4.60 4Z M13.80 4L34.28-33.68L42.52-33.68L22.04 4L13.80 4Z"/></g>
</svg>
</g></svg></svg>